{"title":"Star Wars The Force Awakens 2015 HDTS XviD- INFERNO","uid":13143219,"size":1719327488,"categoryP":"video","categoryS":"movies","magnet":"?xt=urn:btih:8aeda2cbf46c1d3544e4104738ba952455a9eb2f&amp;dn=Star+Wars+The+Force+Awakens+2015+HDTS+XviD-+INFERNO+&amp;tr=udp%3A%2F%2Ftracker.leechers-paradise.org%3A6969&amp;tr=udp%3A%2F%2Fzer0day.ch%3A1337&amp;tr=udp%3A%2F%2Fopen.demonii.com%3A1337&amp;tr=udp%3A%2F%2Ftracker.coppersurfer.tk%3A6969&amp;tr=udp%3A%2F%2Fexodus.desync.com%3A6969","seeders":1,"leechers":3,"uploader":"makintos13","files":3,"time":1452003275,"description":"screens:\r\n \nhttp://imgmak.com/image/KU5\r\n \nhttp://imgmak.com/image/KU1\r\n \nhttp://imgmak.com/image/KUU\r\n \nhttp://imgmak.com/image/KU3\r\n \nhttp://imgmak.com/image/KUH\r\n\r\nSource: CHeWbacca...thanks\r\nLine Audio: Th0ravege...thanks\r\n\r\n\r\n\r\n\r\nFormat : AVI\r\n\r\nFormat/Info : Audio Video Interleave\r\n\r\nFile size : 1.57 GiB\r\n\r\nDuration : 2h 7mn\r\n\r\nOverall bit rate : 1 771 Kbps\r\n\r\nWriting application : VirtualDubMod 1.5.10.2 (build 2540/release)\r\n\r\nWriting library : VirtualDub build 35491/release\r\n\r\nVideo\r\n\r\nID : 0\r\n\r\nFormat : MPEG-4 Visual\r\n\r\nFormat profile : Advanced   \r\n\r\nFormat settings, BVOP : Yes\r\n\r\nFormat settings, QPel : No\r\n\r\nFormat settings, GMC : No warppoints\r\n\r\nFormat settings, Matrix : Default (H.263)\r\n\r\nMuxing mode : Packed bitstream\r\n\r\nCodec ID : XVID\r\n\r\nCodec ID/Hint : XviD\r\n\r\nDuration : 2h 7mn\r\n\r\nBit rate : 1 600 Kbps\r\n\r\nWidth : 720 pixels\r\n\r\nHeight : 320 pixels\r\n\r\nDisplay aspect ratio : 2.25:1\r\n\r\nFrame rate : 29.970 fps\r\n\r\nColor space : YUV\r\n\r\nChroma subsampling : 4:2:0\r\n\r\nBit depth : 8 bits\r\n\r\nScan type : Progressive\r\n\r\nBits/(Pixel*Frame) : 0.232\r\n\r\nStream size : 1.42 GiB (90%)\r\n\r\nWriting library : XviD 1.2.1 (UTC 2008-12-04)\r\n\r\nAudio\r\n\r\nID : 1\r\n\r\nFormat : MPEG Audio\r\n\r\nFormat version : Version 1\r\n\r\nFormat profile : Layer 3\r\n\r\nMode : Joint stereo\r\n\r\nMode extension : MS Stereo\r\n\r\nCodec ID : 55\r\n\r\nCodec ID/Hint : MP3\r\n\r\nDuration : 2h 7mn\r\n\r\nBit rate mode : Constant\r\n\r\nBit rate : 160 Kbps\r\n\r\nChannel(s) : 2 channels\r\n\r\nSampling rate : 44.1 KHz\r\n\r\nStream size : 145 MiB (9%)\r\n\r\nAlignment : Split accross interleaves\r\n\r\nInterleave, duration : 33 ms (1.00 video frame)\r\n\r\nInterleave, preload duration : 500 ms\r\n\r\n\r\nWorkdone:\r\n\r\nFix AR, perspective and rotated the video, adjusted contrast and saturation lower and sharpen up the video some.\r\n\r\nAudio: audio was in good sync, was to flat for me so add some mids and bass to it","torrent":{"xt":"urn:btih:8aeda2cbf46c1d3544e4104738ba952455a9eb2f","amp;dn":"Star+Wars+The+Force+Awakens+2015+HDTS+XviD-+INFERNO+","amp;tr":["udp%3A%2F%2Ftracker.leechers-paradise.org%3A6969","udp%3A%2F%2Fzer0day.ch%3A1337","udp%3A%2F%2Fopen.demonii.com%3A1337","udp%3A%2F%2Ftracker.coppersurfer.tk%3A6969","udp%3A%2F%2Fexodus.desync.com%3A6969"],"infoHash":"8aeda2cbf46c1d3544e4104738ba952455a9eb2f","infoHashBuffer":{"type":"Buffer","data":[138,237,162,203,244,108,29,53,68,228,16,71,56,186,149,36,85,169,235,47]},"announce":[],"urlList":[]}}